<mxfile host="Electron" agent="Mozilla/5.0 (Macintosh; Intel Mac OS X 10_15_7) AppleWebKit/537.36 (KHTML, like Gecko) draw.io/24.7.8 Chrome/128.0.6613.36 Electron/32.0.1 Safari/537.36" version="24.7.8">
  <diagram name="Page-1" id="T1FFb71OLAMakwAZDNIY">
    <mxGraphModel dx="2399" dy="1618" grid="1" gridSize="10" guides="1" tooltips="1" connect="1" arrows="1" fold="1" page="1" pageScale="1" pageWidth="1169" pageHeight="827" math="0" shadow="0">
      <root>
        <mxCell id="0" />
        <mxCell id="1" parent="0" />
        <mxCell id="8zPYgrhGx6R2JW9RTXFA-48" value="Guardian - Lead Solver" style="shape=umlFrame;whiteSpace=wrap;html=1;pointerEvents=0;swimlaneFillColor=#F5FCFF;width=180;height=40;labelBackgroundColor=none;" vertex="1" parent="1">
          <mxGeometry x="20" y="-150" width="1100" height="1070" as="geometry" />
        </mxCell>
        <mxCell id="8zPYgrhGx6R2JW9RTXFA-3" value="8. New Index Order" style="edgeStyle=orthogonalEdgeStyle;rounded=0;orthogonalLoop=1;jettySize=auto;html=1;endSize=10;flowAnimation=0;curved=1;endArrow=async;endFill=1;dashed=1;dashPattern=8 8;align=left;labelBackgroundColor=none;" edge="1" parent="1" source="8zPYgrhGx6R2JW9RTXFA-1" target="8zPYgrhGx6R2JW9RTXFA-2">
          <mxGeometry x="-0.5556" y="10" relative="1" as="geometry">
            <mxPoint as="offset" />
          </mxGeometry>
        </mxCell>
        <mxCell id="8zPYgrhGx6R2JW9RTXFA-45" value="FIX Response" style="edgeStyle=orthogonalEdgeStyle;rounded=0;orthogonalLoop=1;jettySize=auto;html=1;endArrow=async;endFill=1;dashed=1;dashPattern=8 8;endSize=10;labelBackgroundColor=none;" edge="1" parent="1" source="8zPYgrhGx6R2JW9RTXFA-1" target="8zPYgrhGx6R2JW9RTXFA-12">
          <mxGeometry x="-0.2781" y="10" relative="1" as="geometry">
            <Array as="points">
              <mxPoint x="120" y="240" />
              <mxPoint x="120" y="240" />
            </Array>
            <mxPoint as="offset" />
          </mxGeometry>
        </mxCell>
        <mxCell id="8zPYgrhGx6R2JW9RTXFA-1" value="FIX&lt;div&gt;&lt;span style=&quot;&quot;&gt;Server&lt;/span&gt;&lt;/div&gt;&lt;div&gt;&lt;span style=&quot;&quot;&gt;(REST/WS)&lt;/span&gt;&lt;/div&gt;" style="rounded=0;whiteSpace=wrap;html=1;fillColor=#e1d5e7;strokeColor=#9673a6;labelBackgroundColor=none;" vertex="1" parent="1">
          <mxGeometry x="180" y="200" width="120" height="60" as="geometry" />
        </mxCell>
        <mxCell id="8zPYgrhGx6R2JW9RTXFA-6" value="9. New Index Order&lt;div&gt;21. Collateral Ready&lt;/div&gt;&lt;div&gt;28. Engage Index Orders&lt;/div&gt;" style="edgeStyle=orthogonalEdgeStyle;rounded=0;orthogonalLoop=1;jettySize=auto;html=1;endSize=10;endArrow=async;endFill=1;curved=1;align=left;labelBackgroundColor=none;dashed=1;dashPattern=8 8;" edge="1" parent="1" source="8zPYgrhGx6R2JW9RTXFA-2" target="8zPYgrhGx6R2JW9RTXFA-5">
          <mxGeometry x="-0.3103" y="-20" relative="1" as="geometry">
            <Array as="points">
              <mxPoint x="420" y="410" />
            </Array>
            <mxPoint as="offset" />
          </mxGeometry>
        </mxCell>
        <mxCell id="8zPYgrhGx6R2JW9RTXFA-44" value="Index Order Fill" style="edgeStyle=orthogonalEdgeStyle;rounded=0;orthogonalLoop=1;jettySize=auto;html=1;curved=1;endSize=10;align=right;labelBackgroundColor=none;" edge="1" parent="1" source="8zPYgrhGx6R2JW9RTXFA-2" target="8zPYgrhGx6R2JW9RTXFA-1">
          <mxGeometry relative="1" as="geometry" />
        </mxCell>
        <mxCell id="8zPYgrhGx6R2JW9RTXFA-2" value="&lt;div&gt;Index&lt;/div&gt;&lt;div&gt;Order Manager&lt;/div&gt;" style="rounded=0;whiteSpace=wrap;html=1;fillColor=#e1d5e7;strokeColor=#9673a6;labelBackgroundColor=none;" vertex="1" parent="1">
          <mxGeometry x="360" y="290" width="120" height="60" as="geometry" />
        </mxCell>
        <mxCell id="8zPYgrhGx6R2JW9RTXFA-4" value="&lt;div&gt;SolverStrategy&lt;/div&gt;" style="rounded=0;whiteSpace=wrap;html=1;labelBackgroundColor=none;fillColor=#fff2cc;strokeColor=#d6b656;" vertex="1" parent="1">
          <mxGeometry x="650" y="240" width="120" height="60" as="geometry" />
        </mxCell>
        <mxCell id="8zPYgrhGx6R2JW9RTXFA-7" value="&lt;div&gt;10. Query Collateral Management&lt;/div&gt;24. Solve Engagements" style="edgeStyle=orthogonalEdgeStyle;rounded=0;orthogonalLoop=1;jettySize=auto;html=1;endSize=10;align=left;labelBackgroundColor=none;" edge="1" parent="1" source="8zPYgrhGx6R2JW9RTXFA-5" target="8zPYgrhGx6R2JW9RTXFA-4">
          <mxGeometry relative="1" as="geometry" />
        </mxCell>
        <mxCell id="8zPYgrhGx6R2JW9RTXFA-10" value="26. Get Liquidity" style="edgeStyle=orthogonalEdgeStyle;rounded=0;orthogonalLoop=1;jettySize=auto;html=1;curved=1;endSize=10;align=right;labelBackgroundColor=none;" edge="1" parent="1" source="8zPYgrhGx6R2JW9RTXFA-4" target="8zPYgrhGx6R2JW9RTXFA-9">
          <mxGeometry x="-0.3333" y="10" relative="1" as="geometry">
            <mxPoint as="offset" />
          </mxGeometry>
        </mxCell>
        <mxCell id="8zPYgrhGx6R2JW9RTXFA-11" style="edgeStyle=orthogonalEdgeStyle;rounded=0;orthogonalLoop=1;jettySize=auto;html=1;curved=1;endSize=10;labelBackgroundColor=none;" edge="1" parent="1" source="8zPYgrhGx6R2JW9RTXFA-4" target="8zPYgrhGx6R2JW9RTXFA-8">
          <mxGeometry relative="1" as="geometry" />
        </mxCell>
        <mxCell id="8zPYgrhGx6R2JW9RTXFA-17" value="11. Get Prices&lt;div&gt;25. Get Prices&lt;/div&gt;" style="edgeLabel;html=1;align=right;verticalAlign=middle;resizable=0;points=[];labelBackgroundColor=none;" vertex="1" connectable="0" parent="8zPYgrhGx6R2JW9RTXFA-11">
          <mxGeometry x="0.2434" y="-9" relative="1" as="geometry">
            <mxPoint x="-9" y="-15" as="offset" />
          </mxGeometry>
        </mxCell>
        <mxCell id="8zPYgrhGx6R2JW9RTXFA-26" value="&lt;div&gt;6. Deposit&lt;span style=&quot;&quot;&gt;&lt;br&gt;&lt;/span&gt;&lt;/div&gt;&lt;div&gt;&lt;span style=&quot;&quot;&gt;12. Manage Collateral&lt;/span&gt;&lt;br&gt;&lt;/div&gt;&lt;div&gt;&lt;span style=&quot;&quot;&gt;22. Pre-Auth Payment&lt;/span&gt;&lt;/div&gt;" style="edgeStyle=orthogonalEdgeStyle;rounded=0;orthogonalLoop=1;jettySize=auto;html=1;curved=1;endSize=10;align=left;labelBackgroundColor=none;" edge="1" parent="1" source="8zPYgrhGx6R2JW9RTXFA-5" target="8zPYgrhGx6R2JW9RTXFA-25">
          <mxGeometry x="0.2417" y="30" relative="1" as="geometry">
            <Array as="points">
              <mxPoint x="710" y="510" />
              <mxPoint x="560" y="510" />
            </Array>
            <mxPoint as="offset" />
          </mxGeometry>
        </mxCell>
        <mxCell id="8zPYgrhGx6R2JW9RTXFA-42" value="&lt;div&gt;20&lt;span style=&quot;&quot;&gt;. Collateral Ready&lt;/span&gt;&lt;/div&gt;27. Engage Order Request&lt;div&gt;Fill Order Request&lt;/div&gt;" style="edgeStyle=orthogonalEdgeStyle;rounded=0;orthogonalLoop=1;jettySize=auto;html=1;curved=1;endSize=10;align=left;labelBackgroundColor=none;" edge="1" parent="1" source="8zPYgrhGx6R2JW9RTXFA-5" target="8zPYgrhGx6R2JW9RTXFA-2">
          <mxGeometry x="0.7692" y="-30" relative="1" as="geometry">
            <Array as="points">
              <mxPoint x="680" y="320" />
            </Array>
            <mxPoint as="offset" />
          </mxGeometry>
        </mxCell>
        <mxCell id="8zPYgrhGx6R2JW9RTXFA-47" value="29. Engage Index Orders" style="edgeStyle=orthogonalEdgeStyle;rounded=0;orthogonalLoop=1;jettySize=auto;html=1;curved=1;endSize=10;align=left;labelBackgroundColor=none;" edge="1" parent="1" source="8zPYgrhGx6R2JW9RTXFA-5" target="8zPYgrhGx6R2JW9RTXFA-46">
          <mxGeometry x="-0.4737" y="10" relative="1" as="geometry">
            <mxPoint as="offset" />
          </mxGeometry>
        </mxCell>
        <mxCell id="8zPYgrhGx6R2JW9RTXFA-5" value="&lt;div&gt;Solver&lt;/div&gt;" style="rounded=0;whiteSpace=wrap;html=1;labelBackgroundColor=none;fillColor=#fff2cc;strokeColor=#d6b656;" vertex="1" parent="1">
          <mxGeometry x="650" y="380" width="120" height="60" as="geometry" />
        </mxCell>
        <mxCell id="8zPYgrhGx6R2JW9RTXFA-8" value="&lt;div&gt;&lt;span style=&quot;&quot;&gt;Price Tracker&lt;/span&gt;&lt;br&gt;&lt;/div&gt;" style="rounded=0;whiteSpace=wrap;html=1;fillColor=#d5e8d4;strokeColor=#82b366;labelBackgroundColor=none;" vertex="1" parent="1">
          <mxGeometry x="490" y="60" width="120" height="60" as="geometry" />
        </mxCell>
        <mxCell id="8zPYgrhGx6R2JW9RTXFA-9" value="&lt;div&gt;Order Book&lt;/div&gt;&lt;div&gt;Manager&lt;/div&gt;" style="rounded=0;whiteSpace=wrap;html=1;fillColor=#d5e8d4;strokeColor=#82b366;labelBackgroundColor=none;" vertex="1" parent="1">
          <mxGeometry x="650" y="60" width="120" height="60" as="geometry" />
        </mxCell>
        <mxCell id="8zPYgrhGx6R2JW9RTXFA-16" value="7. FIX Message" style="edgeStyle=orthogonalEdgeStyle;rounded=0;orthogonalLoop=1;jettySize=auto;html=1;endSize=10;endArrow=classic;endFill=1;labelBackgroundColor=none;" edge="1" parent="1" source="8zPYgrhGx6R2JW9RTXFA-12" target="8zPYgrhGx6R2JW9RTXFA-1">
          <mxGeometry x="0.0976" y="10" relative="1" as="geometry">
            <Array as="points">
              <mxPoint x="120" y="220" />
              <mxPoint x="120" y="220" />
            </Array>
            <mxPoint as="offset" />
          </mxGeometry>
        </mxCell>
        <mxCell id="8zPYgrhGx6R2JW9RTXFA-35" value="2. Call&lt;div&gt;Smart-Contract&lt;/div&gt;&lt;div&gt;Methods&lt;/div&gt;" style="edgeStyle=orthogonalEdgeStyle;rounded=0;orthogonalLoop=1;jettySize=auto;html=1;endSize=10;curved=1;align=right;labelBackgroundColor=none;" edge="1" parent="1" source="8zPYgrhGx6R2JW9RTXFA-12" target="8zPYgrhGx6R2JW9RTXFA-34">
          <mxGeometry x="-0.2812" y="-22" relative="1" as="geometry">
            <mxPoint y="1" as="offset" />
          </mxGeometry>
        </mxCell>
        <mxCell id="8zPYgrhGx6R2JW9RTXFA-12" value="Web&lt;div&gt;App&lt;/div&gt;" style="ellipse;shape=cloud;whiteSpace=wrap;html=1;fillColor=#f5f5f5;fontColor=#333333;strokeColor=#666666;labelBackgroundColor=none;strokeWidth=3;" vertex="1" parent="1">
          <mxGeometry x="-170" y="185" width="130" height="90" as="geometry" />
        </mxCell>
        <mxCell id="8zPYgrhGx6R2JW9RTXFA-13" style="edgeStyle=orthogonalEdgeStyle;rounded=0;orthogonalLoop=1;jettySize=auto;html=1;curved=1;strokeWidth=3;labelBackgroundColor=none;" edge="1" parent="1" source="8zPYgrhGx6R2JW9RTXFA-15" target="8zPYgrhGx6R2JW9RTXFA-12">
          <mxGeometry relative="1" as="geometry" />
        </mxCell>
        <mxCell id="8zPYgrhGx6R2JW9RTXFA-14" value="&lt;font style=&quot;font-size: 13px;&quot;&gt;&lt;b style=&quot;&quot;&gt;1. Make&lt;/b&gt;&lt;/font&gt;&lt;div&gt;&lt;span style=&quot;color: light-dark(rgb(0, 0, 0), rgb(255, 255, 255));&quot;&gt;&lt;b&gt;&lt;font style=&quot;font-size: 13px;&quot;&gt;Index Order&amp;nbsp;&lt;/font&gt;&lt;/b&gt;&lt;/span&gt;&lt;/div&gt;" style="edgeLabel;html=1;align=left;verticalAlign=middle;resizable=0;points=[];labelBackgroundColor=none;" vertex="1" connectable="0" parent="8zPYgrhGx6R2JW9RTXFA-13">
          <mxGeometry x="0.0807" relative="1" as="geometry">
            <mxPoint x="-7" y="-21" as="offset" />
          </mxGeometry>
        </mxCell>
        <mxCell id="8zPYgrhGx6R2JW9RTXFA-15" value="&lt;b&gt;&lt;font style=&quot;font-size: 14px;&quot;&gt;User&lt;/font&gt;&lt;/b&gt;" style="shape=umlActor;verticalLabelPosition=bottom;verticalAlign=top;html=1;outlineConnect=0;labelBackgroundColor=none;strokeWidth=3;" vertex="1" parent="1">
          <mxGeometry x="-290" y="100" width="30" height="60" as="geometry" />
        </mxCell>
        <mxCell id="8zPYgrhGx6R2JW9RTXFA-18" style="rounded=0;orthogonalLoop=1;jettySize=auto;html=1;shape=flexArrow;labelBackgroundColor=none;fillColor=default;" edge="1" parent="1" source="8zPYgrhGx6R2JW9RTXFA-19" target="8zPYgrhGx6R2JW9RTXFA-20">
          <mxGeometry relative="1" as="geometry" />
        </mxCell>
        <mxCell id="8zPYgrhGx6R2JW9RTXFA-21" value="Depth" style="edgeStyle=orthogonalEdgeStyle;rounded=0;orthogonalLoop=1;jettySize=auto;html=1;endArrow=async;endFill=1;curved=1;endSize=10;labelBackgroundColor=none;" edge="1" parent="1" source="8zPYgrhGx6R2JW9RTXFA-19" target="8zPYgrhGx6R2JW9RTXFA-9">
          <mxGeometry y="30" relative="1" as="geometry">
            <mxPoint as="offset" />
          </mxGeometry>
        </mxCell>
        <mxCell id="8zPYgrhGx6R2JW9RTXFA-22" value="TOB" style="edgeStyle=orthogonalEdgeStyle;rounded=0;orthogonalLoop=1;jettySize=auto;html=1;endArrow=async;endFill=1;strokeColor=default;curved=1;endSize=10;labelBackgroundColor=none;" edge="1" parent="1" source="8zPYgrhGx6R2JW9RTXFA-19" target="8zPYgrhGx6R2JW9RTXFA-8">
          <mxGeometry relative="1" as="geometry" />
        </mxCell>
        <mxCell id="8zPYgrhGx6R2JW9RTXFA-19" value="Binance&lt;div&gt;Market Data&lt;/div&gt;&lt;div&gt;Connector&lt;/div&gt;" style="rounded=0;whiteSpace=wrap;html=1;fillColor=#d5e8d4;strokeColor=#82b366;labelBackgroundColor=none;" vertex="1" parent="1">
          <mxGeometry x="650" y="-100" width="120" height="60" as="geometry" />
        </mxCell>
        <mxCell id="8zPYgrhGx6R2JW9RTXFA-20" value="Binance" style="ellipse;shape=cloud;whiteSpace=wrap;html=1;fillColor=#f5f5f5;fontColor=#333333;strokeColor=#666666;labelBackgroundColor=none;" vertex="1" parent="1">
          <mxGeometry x="565" y="-390" width="290" height="150" as="geometry" />
        </mxCell>
        <mxCell id="8zPYgrhGx6R2JW9RTXFA-28" value="13. Transfer&lt;div&gt;Collateral&lt;/div&gt;" style="edgeStyle=orthogonalEdgeStyle;rounded=0;orthogonalLoop=1;jettySize=auto;html=1;curved=1;endSize=10;align=right;labelBackgroundColor=none;" edge="1" parent="1" source="8zPYgrhGx6R2JW9RTXFA-25" target="8zPYgrhGx6R2JW9RTXFA-27">
          <mxGeometry x="-0.125" relative="1" as="geometry">
            <mxPoint as="offset" />
          </mxGeometry>
        </mxCell>
        <mxCell id="8zPYgrhGx6R2JW9RTXFA-41" value="19. Collateral Ready&lt;div&gt;23. PreAuthResponse&lt;/div&gt;&lt;div&gt;ConfirmResponse&lt;/div&gt;" style="edgeStyle=orthogonalEdgeStyle;rounded=0;orthogonalLoop=1;jettySize=auto;html=1;curved=1;dashed=1;dashPattern=8 8;endArrow=async;endFill=1;align=left;labelBackgroundColor=none;" edge="1" parent="1" source="8zPYgrhGx6R2JW9RTXFA-25" target="8zPYgrhGx6R2JW9RTXFA-5">
          <mxGeometry x="0.7241" y="-10" relative="1" as="geometry">
            <Array as="points">
              <mxPoint x="740" y="610" />
            </Array>
            <mxPoint as="offset" />
          </mxGeometry>
        </mxCell>
        <mxCell id="8zPYgrhGx6R2JW9RTXFA-25" value="&lt;div&gt;CollateralManager&lt;/div&gt;" style="rounded=0;whiteSpace=wrap;html=1;labelBackgroundColor=none;fillColor=#dae8fc;strokeColor=#6c8ebf;" vertex="1" parent="1">
          <mxGeometry x="500" y="580" width="120" height="60" as="geometry" />
        </mxCell>
        <mxCell id="8zPYgrhGx6R2JW9RTXFA-31" value="14. Transfer&lt;div&gt;Funds&lt;/div&gt;" style="edgeStyle=orthogonalEdgeStyle;rounded=0;orthogonalLoop=1;jettySize=auto;html=1;curved=1;endSize=10;align=right;labelBackgroundColor=none;" edge="1" parent="1" source="8zPYgrhGx6R2JW9RTXFA-27" target="8zPYgrhGx6R2JW9RTXFA-29">
          <mxGeometry x="0.5" y="-10" relative="1" as="geometry">
            <Array as="points">
              <mxPoint x="280" y="720" />
            </Array>
            <mxPoint as="offset" />
          </mxGeometry>
        </mxCell>
        <mxCell id="8zPYgrhGx6R2JW9RTXFA-32" value="16. Transfer&lt;div&gt;Funds&lt;/div&gt;" style="edgeStyle=orthogonalEdgeStyle;rounded=0;orthogonalLoop=1;jettySize=auto;html=1;curved=1;endSize=10;align=left;labelBackgroundColor=none;" edge="1" parent="1" source="8zPYgrhGx6R2JW9RTXFA-27" target="8zPYgrhGx6R2JW9RTXFA-30">
          <mxGeometry x="0.375" y="10" relative="1" as="geometry">
            <Array as="points">
              <mxPoint x="540" y="720" />
            </Array>
            <mxPoint as="offset" />
          </mxGeometry>
        </mxCell>
        <mxCell id="8zPYgrhGx6R2JW9RTXFA-40" value="18. Transfer&lt;div&gt;Complete&lt;/div&gt;" style="edgeStyle=orthogonalEdgeStyle;rounded=0;orthogonalLoop=1;jettySize=auto;html=1;curved=1;endArrow=async;endFill=1;dashed=1;dashPattern=8 8;align=left;labelBackgroundColor=none;" edge="1" parent="1" source="8zPYgrhGx6R2JW9RTXFA-27" target="8zPYgrhGx6R2JW9RTXFA-25">
          <mxGeometry x="0.6" y="-10" relative="1" as="geometry">
            <Array as="points">
              <mxPoint x="560" y="700" />
            </Array>
            <mxPoint as="offset" />
          </mxGeometry>
        </mxCell>
        <mxCell id="8zPYgrhGx6R2JW9RTXFA-27" value="&lt;div&gt;Collateral&lt;/div&gt;&lt;div&gt;Router&lt;/div&gt;" style="rounded=0;whiteSpace=wrap;html=1;labelBackgroundColor=none;fillColor=#dae8fc;strokeColor=#6c8ebf;" vertex="1" parent="1">
          <mxGeometry x="350" y="680" width="120" height="60" as="geometry" />
        </mxCell>
        <mxCell id="8zPYgrhGx6R2JW9RTXFA-38" value="15. Hop&lt;div&gt;Complete&lt;/div&gt;" style="edgeStyle=orthogonalEdgeStyle;rounded=0;orthogonalLoop=1;jettySize=auto;html=1;endArrow=async;endFill=1;dashed=1;dashPattern=8 8;curved=1;endSize=10;align=right;labelBackgroundColor=none;" edge="1" parent="1" source="8zPYgrhGx6R2JW9RTXFA-29" target="8zPYgrhGx6R2JW9RTXFA-27">
          <mxGeometry x="0.5714" y="10" relative="1" as="geometry">
            <Array as="points">
              <mxPoint x="390" y="830" />
            </Array>
            <mxPoint as="offset" />
          </mxGeometry>
        </mxCell>
        <mxCell id="8zPYgrhGx6R2JW9RTXFA-29" value="&lt;div&gt;Collateral&lt;/div&gt;&lt;div&gt;Bridge:&lt;/div&gt;&lt;div&gt;Arbitrum -&amp;gt; Base&lt;/div&gt;" style="rounded=0;whiteSpace=wrap;html=1;labelBackgroundColor=none;fillColor=#dae8fc;strokeColor=#6c8ebf;" vertex="1" parent="1">
          <mxGeometry x="220" y="800" width="120" height="60" as="geometry" />
        </mxCell>
        <mxCell id="8zPYgrhGx6R2JW9RTXFA-39" value="17. Hop&lt;div&gt;Complete&lt;/div&gt;" style="edgeStyle=orthogonalEdgeStyle;rounded=0;orthogonalLoop=1;jettySize=auto;html=1;dashed=1;dashPattern=8 8;curved=1;endArrow=async;endFill=1;endSize=10;align=left;labelBackgroundColor=none;" edge="1" parent="1" source="8zPYgrhGx6R2JW9RTXFA-30" target="8zPYgrhGx6R2JW9RTXFA-27">
          <mxGeometry x="0.6" y="-10" relative="1" as="geometry">
            <Array as="points">
              <mxPoint x="420" y="830" />
            </Array>
            <mxPoint as="offset" />
          </mxGeometry>
        </mxCell>
        <mxCell id="8zPYgrhGx6R2JW9RTXFA-30" value="&lt;div&gt;Collateral&lt;/div&gt;&lt;div&gt;Bridge:&lt;/div&gt;&lt;div&gt;Base -&amp;gt; Binance&lt;/div&gt;" style="rounded=0;whiteSpace=wrap;html=1;labelBackgroundColor=none;fillColor=#dae8fc;strokeColor=#6c8ebf;" vertex="1" parent="1">
          <mxGeometry x="480" y="800" width="120" height="60" as="geometry" />
        </mxCell>
        <mxCell id="8zPYgrhGx6R2JW9RTXFA-37" value="5. Deposit" style="edgeStyle=orthogonalEdgeStyle;rounded=0;orthogonalLoop=1;jettySize=auto;html=1;entryX=0.25;entryY=1;entryDx=0;entryDy=0;curved=1;endArrow=async;endFill=1;endSize=10;align=left;labelBackgroundColor=none;" edge="1" parent="1" source="8zPYgrhGx6R2JW9RTXFA-33" target="8zPYgrhGx6R2JW9RTXFA-5">
          <mxGeometry x="-0.8182" y="-10" relative="1" as="geometry">
            <mxPoint as="offset" />
          </mxGeometry>
        </mxCell>
        <mxCell id="8zPYgrhGx6R2JW9RTXFA-33" value="EVM&lt;div&gt;Connector&lt;/div&gt;" style="rounded=0;whiteSpace=wrap;html=1;fillColor=#e1d5e7;strokeColor=#9673a6;labelBackgroundColor=none;" vertex="1" parent="1">
          <mxGeometry x="290" y="470" width="120" height="60" as="geometry" />
        </mxCell>
        <mxCell id="8zPYgrhGx6R2JW9RTXFA-36" value="4. Deposit" style="edgeStyle=orthogonalEdgeStyle;rounded=0;orthogonalLoop=1;jettySize=auto;html=1;endArrow=async;endFill=1;endSize=10;curved=1;dashed=1;dashPattern=8 8;labelBackgroundColor=none;" edge="1" parent="1" source="8zPYgrhGx6R2JW9RTXFA-34" target="8zPYgrhGx6R2JW9RTXFA-33">
          <mxGeometry x="-0.1111" y="10" relative="1" as="geometry">
            <mxPoint as="offset" />
          </mxGeometry>
        </mxCell>
        <mxCell id="8zPYgrhGx6R2JW9RTXFA-34" value="&lt;div&gt;Smart&lt;/div&gt;&lt;div&gt;Contracts&lt;/div&gt;" style="ellipse;shape=cloud;whiteSpace=wrap;html=1;fillColor=#f5f5f5;fontColor=#333333;strokeColor=#666666;labelBackgroundColor=none;" vertex="1" parent="1">
          <mxGeometry x="-175" y="360" width="140" height="100" as="geometry" />
        </mxCell>
        <mxCell id="8zPYgrhGx6R2JW9RTXFA-51" value="30." style="edgeStyle=orthogonalEdgeStyle;rounded=0;orthogonalLoop=1;jettySize=auto;html=1;curved=1;align=left;" edge="1" parent="1" source="8zPYgrhGx6R2JW9RTXFA-46" target="8zPYgrhGx6R2JW9RTXFA-49">
          <mxGeometry x="-0.0769" y="10" relative="1" as="geometry">
            <mxPoint as="offset" />
          </mxGeometry>
        </mxCell>
        <mxCell id="8zPYgrhGx6R2JW9RTXFA-46" value="&lt;div&gt;Batch&lt;/div&gt;&lt;div&gt;Manager&lt;/div&gt;" style="rounded=0;whiteSpace=wrap;html=1;labelBackgroundColor=none;fillColor=#fff2cc;strokeColor=#d6b656;" vertex="1" parent="1">
          <mxGeometry x="960" y="380" width="120" height="60" as="geometry" />
        </mxCell>
        <mxCell id="8zPYgrhGx6R2JW9RTXFA-49" value="" style="ellipse;html=1;shape=endState;fillColor=#000000;strokeColor=#ff0000;" vertex="1" parent="1">
          <mxGeometry x="1190" y="395" width="30" height="30" as="geometry" />
        </mxCell>
      </root>
    </mxGraphModel>
  </diagram>
</mxfile>
